<svg width="99" height="14" viewBox="0 0 99 14" fill="none" xmlns="http://www.w3.org/2000/svg">
<path d="M5.592 13.8989C4.52 13.8989 3.472 13.7683 2.448 13.5072C1.424 13.2297 0.608 12.8869 0 12.4788L1.248 9.73655C1.824 10.112 2.52 10.4221 3.336 10.667C4.152 10.8955 4.952 11.0097 5.736 11.0097C7.32 11.0097 8.112 10.6098 8.112 9.81C8.112 9.43457 7.896 9.16524 7.464 9.00201C7.032 8.83878 6.368 8.70004 5.472 8.58577C4.416 8.42254 3.544 8.23483 2.856 8.02263C2.168 7.81043 1.568 7.435 1.056 6.89634C0.56 6.35768 0.312 5.59049 0.312 4.59479C0.312 3.76231 0.544 3.02778 1.008 2.39118C1.488 1.73825 2.176 1.23224 3.072 0.873132C3.984 0.514026 5.056 0.334473 6.288 0.334473C7.2 0.334473 8.104 0.440572 9 0.65277C9.912 0.848647 10.664 1.12614 11.256 1.48525L10.008 4.20304C8.872 3.55011 7.632 3.22365 6.288 3.22365C5.488 3.22365 4.888 3.33791 4.488 3.56644C4.088 3.79496 3.888 4.08877 3.888 4.44788C3.888 4.85596 4.104 5.14161 4.536 5.30484C4.968 5.46807 5.656 5.62314 6.6 5.77005C7.656 5.9496 8.52 6.14548 9.192 6.35768C9.864 6.55355 10.448 6.92082 10.944 7.45948C11.44 7.99814 11.688 8.749 11.688 9.71206C11.688 10.5282 11.448 11.2546 10.968 11.8912C10.488 12.5278 9.784 13.0256 8.856 13.3848C7.944 13.7275 6.856 13.8989 5.592 13.8989Z" fill="#141516"/>
<path d="M20.238 13.8989C18.862 13.8989 17.622 13.6133 16.518 13.042C15.43 12.4543 14.574 11.6463 13.95 10.618C13.342 9.58964 13.038 8.42254 13.038 7.1167C13.038 5.81085 13.342 4.64376 13.95 3.61541C14.574 2.58705 15.43 1.78722 16.518 1.21592C17.622 0.628287 18.862 0.334473 20.238 0.334473C21.598 0.334473 22.782 0.628287 23.79 1.21592C24.814 1.78722 25.558 2.61154 26.022 3.68886L23.118 5.28036C22.446 4.07245 21.478 3.4685 20.214 3.4685C19.238 3.4685 18.43 3.79496 17.79 4.44788C17.15 5.1008 16.83 5.99041 16.83 7.1167C16.83 8.24299 17.15 9.1326 17.79 9.78552C18.43 10.4384 19.238 10.7649 20.214 10.7649C21.494 10.7649 22.462 10.1609 23.118 8.95304L26.022 10.569C25.558 11.6137 24.814 12.4299 23.79 13.0175C22.782 13.6051 21.598 13.8989 20.238 13.8989Z" fill="#141516"/>
<path d="M31.7537 2.26875C32.2017 1.63215 32.8017 1.15062 33.5537 0.824164C34.3217 0.497703 35.2017 0.334473 36.1937 0.334473V3.86025C35.7777 3.8276 35.4977 3.81128 35.3537 3.81128C34.2817 3.81128 33.4417 4.12142 32.8337 4.7417C32.2257 5.34565 31.9217 6.25974 31.9217 7.48397V13.7031H28.1777V0.530349H31.7537V2.26875Z" fill="#141516"/>
<path d="M51.1616 7.16567C51.1616 7.21464 51.1376 7.55742 51.0896 8.19402H41.3216C41.4976 9.01017 41.9136 9.65493 42.5696 10.1283C43.2256 10.6017 44.0416 10.8384 45.0176 10.8384C45.6896 10.8384 46.2816 10.7404 46.7936 10.5445C47.3216 10.3323 47.8096 10.0059 48.2576 9.56516L50.2496 11.7688C49.0336 13.1889 47.2576 13.8989 44.9216 13.8989C43.4656 13.8989 42.1776 13.6133 41.0576 13.042C39.9376 12.4543 39.0736 11.6463 38.4656 10.618C37.8576 9.58964 37.5536 8.42254 37.5536 7.1167C37.5536 5.82718 37.8496 4.66824 38.4416 3.63989C39.0496 2.59521 39.8736 1.78722 40.9136 1.21592C41.9696 0.628287 43.1456 0.334473 44.4416 0.334473C45.7056 0.334473 46.8496 0.611965 47.8736 1.16695C48.8976 1.72193 49.6976 2.52176 50.2736 3.56644C50.8656 4.59479 51.1616 5.79453 51.1616 7.16567ZM44.4656 3.22365C43.6176 3.22365 42.9056 3.4685 42.3296 3.95819C41.7536 4.44788 41.4016 5.11713 41.2736 5.96592H47.6336C47.5056 5.13345 47.1536 4.47237 46.5776 3.98267C46.0016 3.47666 45.2976 3.22365 44.4656 3.22365Z" fill="#006AFF"/>
<path d="M66.3022 7.16567C66.3022 7.21464 66.2782 7.55742 66.2302 8.19402H56.4622C56.6382 9.01017 57.0543 9.65493 57.7103 10.1283C58.3662 10.6017 59.1823 10.8384 60.1583 10.8384C60.8303 10.8384 61.4222 10.7404 61.9342 10.5445C62.4622 10.3323 62.9502 10.0059 63.3983 9.56516L65.3903 11.7688C64.1742 13.1889 62.3983 13.8989 60.0623 13.8989C58.6063 13.8989 57.3182 13.6133 56.1982 13.042C55.0783 12.4543 54.2143 11.6463 53.6063 10.618C52.9982 9.58964 52.6943 8.42254 52.6943 7.1167C52.6943 5.82718 52.9902 4.66824 53.5822 3.63989C54.1903 2.59521 55.0142 1.78722 56.0542 1.21592C57.1102 0.628287 58.2862 0.334473 59.5822 0.334473C60.8462 0.334473 61.9903 0.611965 63.0143 1.16695C64.0383 1.72193 64.8382 2.52176 65.4142 3.56644C66.0062 4.59479 66.3022 5.79453 66.3022 7.16567ZM59.6063 3.22365C58.7583 3.22365 58.0462 3.4685 57.4702 3.95819C56.8942 4.44788 56.5422 5.11713 56.4142 5.96592H62.7743C62.6463 5.13345 62.2943 4.47237 61.7183 3.98267C61.1423 3.47666 60.4383 3.22365 59.6063 3.22365Z" fill="#006AFF"/>
<path d="M76.6429 0.334473C78.2429 0.334473 79.5309 0.824164 80.5069 1.80355C81.4989 2.78293 81.9949 4.23568 81.9949 6.1618V13.7031H78.2509V6.74943C78.2509 5.70476 78.0269 4.92941 77.5789 4.4234C77.1309 3.90106 76.4829 3.63989 75.6349 3.63989C74.6909 3.63989 73.9389 3.94187 73.3789 4.54582C72.8189 5.13345 72.5389 6.01489 72.5389 7.19015V13.7031H68.7949V0.530349H72.3709V2.07288C72.8669 1.51789 73.4829 1.09349 74.2189 0.799679C74.9549 0.489541 75.7629 0.334473 76.6429 0.334473Z" fill="#141516"/>
<path d="M91.6732 13.8989C90.3132 13.8989 89.0892 13.6133 88.0012 13.042C86.9292 12.4543 86.0892 11.6463 85.4812 10.618C84.8732 9.58964 84.5692 8.42254 84.5692 7.1167C84.5692 5.81085 84.8732 4.64376 85.4812 3.61541C86.0892 2.58705 86.9292 1.78722 88.0012 1.21592C89.0892 0.628287 90.3132 0.334473 91.6732 0.334473C93.0332 0.334473 94.2493 0.628287 95.3213 1.21592C96.3932 1.78722 97.2332 2.58705 97.8412 3.61541C98.4492 4.64376 98.7533 5.81085 98.7533 7.1167C98.7533 8.42254 98.4492 9.58964 97.8412 10.618C97.2332 11.6463 96.3932 12.4543 95.3213 13.042C94.2493 13.6133 93.0332 13.8989 91.6732 13.8989ZM91.6732 10.7649C92.6332 10.7649 93.4172 10.4384 94.0252 9.78552C94.6492 9.11627 94.9613 8.22667 94.9613 7.1167C94.9613 6.00673 94.6492 5.12529 94.0252 4.47237C93.4172 3.80312 92.6332 3.4685 91.6732 3.4685C90.7132 3.4685 89.9212 3.80312 89.2972 4.47237C88.6732 5.12529 88.3612 6.00673 88.3612 7.1167C88.3612 8.22667 88.6732 9.11627 89.2972 9.78552C89.9212 10.4384 90.7132 10.7649 91.6732 10.7649Z" fill="#141516"/>
</svg>
